<?xml version="1.0" encoding="utf-8"?>
<!-- Generator: Adobe Illustrator 26.5.0, SVG Export Plug-In . SVG Version: 6.00 Build 0)  -->
<svg version="1.1" id="Vrstva_1" xmlns="http://www.w3.org/2000/svg" xmlns:xlink="http://www.w3.org/1999/xlink" x="0px" y="0px"
	 viewBox="0 0 1037.9 792" style="enable-background:new 0 0 1037.9 792;" xml:space="preserve">
<g>
	<polygon points="619,452.4 819.4,206.1 819.4,171.1 582.3,171.1 582.3,202.1 778.7,202.1 577.9,448.4 577.9,482.9 823.8,482.9 
		823.8,452.4 	"/>
	<path d="M615.1,333.2h7.8v-27.4h-7.8h-3.6c-40.7,0-73.7-33.1-73.7-73.7h-27.4c0,29.1,12.3,55.3,32,73.7H424.8l-54.2-140.5h-44.2
		L205.2,477.1h39.4l28.7-74.7h150.4l28.3,74.7H491l-55.5-144h106.9c-19.7,18.5-32,44.7-32,73.7h27.4c0-40.7,33.1-73.7,73.7-73.7
		H615.1z M284,369.7l64.1-168.1h0.9l63.7,168.1H284z"/>
</g>
<g>
	<path d="M273.3,556.3h40.9c7,0,13.2,1.3,18.7,3.9c5.4,2.6,9.7,6.2,12.7,10.7c3,4.5,4.5,9.7,4.5,15.5c0,5.8-1.5,10.9-4.6,15.5
		c-3.1,4.6-7.3,8.2-12.8,10.7s-11.7,3.8-18.5,3.8h-25v35.4h-15.9V556.3z M313.2,603c4,0,7.5-0.7,10.7-2.2c3.2-1.4,5.7-3.4,7.4-5.9
		c1.8-2.5,2.6-5.4,2.6-8.5c0-4.9-2-8.9-5.9-12c-3.9-3.1-8.9-4.7-15.1-4.7h-24l0.1,33.3H313.2z"/>
	<path d="M372.5,649.8c-5.9-3.2-10.4-7.7-13.8-13.4c-3.3-5.8-5-12.3-5-19.6c0-6.9,1.5-13.1,4.5-18.6c3-5.5,7.2-9.8,12.7-12.8
		c5.4-3.1,11.6-4.6,18.6-4.6c6.7,0,12.6,1.5,17.8,4.5c5.2,3,9.3,7.2,12.1,12.6c2.9,5.4,4.4,11.6,4.5,18.5c0,1,0,2-0.1,3
		c-0.1,1-0.2,1.9-0.3,2.8H369c0.4,4,1.7,7.5,3.8,10.5c2.1,3.1,4.9,5.4,8.4,7.2c3.5,1.7,7.4,2.6,11.8,2.6c4.8,0,9.1-1.1,13-3.2
		c3.9-2.1,6.7-4.8,8.4-8.2l10.9,5.8c-1.4,3.5-3.8,6.6-7.1,9.2c-3.3,2.7-7.1,4.7-11.5,6.2c-4.4,1.5-9.2,2.2-14.3,2.2
		C385,654.6,378.3,653,372.5,649.8z M408.5,611.2c-0.4-4-1.4-7.4-3-10.2c-1.7-2.7-3.9-4.9-6.6-6.3c-2.7-1.5-5.9-2.2-9.5-2.2
		c-3.5,0-6.7,0.8-9.6,2.4c-2.9,1.6-5.2,3.8-7.1,6.6c-1.8,2.8-3.1,6-3.7,9.7H408.5z"/>
	<path d="M488.1,583.8c3.6,2.1,6.4,5.1,8.4,9c2,4,3,8.6,3,14v45h-14.7v-42.1c0-5-1.3-9.1-4.1-12.1c-2.7-3-6.3-4.5-10.9-4.5
		c-3.7,0-7.1,0.9-10.1,2.6c-3.1,1.8-5.5,4.2-7.3,7.3c-1.8,3.1-2.7,6.6-2.7,10.5v38.3H435v-68.6h12.8l1.9,9.7h0.1c3-4,6.5-7,10.7-9.1
		c4.1-2.1,9-3.2,14.4-3.2C480.1,580.7,484.5,581.7,488.1,583.8z"/>
	<path d="M525.1,649.6c-5.1-3.2-9.1-7.6-11.9-13.1c-2.9-5.5-4.3-11.9-4.3-19c0-7.1,1.4-13.4,4.3-19c2.8-5.5,6.8-9.9,11.9-13.1
		c5.1-3.2,10.9-4.8,17.3-4.8c5.1,0,9.8,1.1,14,3.3c4.2,2.2,7.7,5.5,10.6,9.8h0.1v-41.6h14.6v99.6h-12.3l-2-10.7h-0.1
		c-2.9,4.2-6.4,7.5-10.6,9.8c-4.2,2.3-8.9,3.4-14.1,3.4C536,654.4,530.2,652.8,525.1,649.6z M556.8,638.4c3.3-2.2,5.9-5.1,7.8-8.7
		c1.9-3.6,2.8-7.7,2.8-12.1c0-4.4-0.9-8.4-2.8-12c-1.9-3.6-4.5-6.5-7.8-8.6c-3.3-2.2-7.1-3.2-11.3-3.2c-4.1,0-7.9,1.1-11.2,3.2
		c-3.3,2.2-5.9,5-7.8,8.6c-1.9,3.6-2.8,7.6-2.8,12c0,4.4,0.9,8.5,2.8,12.2c1.9,3.7,4.5,6.6,7.9,8.7c3.4,2.1,7.1,3.2,11.1,3.2
		C549.7,641.6,553.4,640.5,556.8,638.4z"/>
	<path d="M594.4,552.2H609v99.6h-14.6V552.2z"/>
	<path d="M638,649.8c-5.9-3.2-10.4-7.7-13.8-13.4c-3.3-5.8-5-12.3-5-19.6c0-6.9,1.5-13.1,4.5-18.6c3-5.5,7.2-9.8,12.7-12.8
		c5.4-3.1,11.6-4.6,18.6-4.6c6.7,0,12.6,1.5,17.8,4.5c5.2,3,9.3,7.2,12.1,12.6c2.9,5.4,4.4,11.6,4.5,18.5c0,1,0,2-0.1,3
		c-0.1,1-0.2,1.9-0.3,2.8h-54.5c0.4,4,1.7,7.5,3.8,10.5c2.1,3.1,4.9,5.4,8.4,7.2c3.5,1.7,7.4,2.6,11.8,2.6c4.8,0,9.1-1.1,13-3.2
		c3.9-2.1,6.7-4.8,8.4-8.2l10.9,5.8c-1.4,3.5-3.8,6.6-7.1,9.2c-3.3,2.7-7.1,4.7-11.5,6.2c-4.4,1.5-9.2,2.2-14.3,2.2
		C650.5,654.6,643.9,653,638,649.8z M674.1,611.2c-0.4-4-1.4-7.4-3-10.2c-1.7-2.7-3.9-4.9-6.6-6.3c-2.7-1.5-5.9-2.2-9.5-2.2
		c-3.5,0-6.7,0.8-9.6,2.4c-2.9,1.6-5.2,3.8-7.1,6.6c-1.8,2.8-3.1,6-3.7,9.7H674.1z"/>
	<path d="M744.8,583.3c3.1,1.8,5.6,4.3,7.4,7.6c1.8,3.3,3,7.2,3.6,11.8l-12.7,3.8c-0.4-4.1-1.6-7.4-3.7-9.9
		c-2.1-2.4-4.8-3.6-8.2-3.6c-3.2,0-6.1,0.9-8.5,2.7c-2.4,1.8-4.3,4.3-5.6,7.6c-1.3,3.3-2,7.2-2,11.8v36.7h-14.6v-68.6h11.9l2,10.8
		h0.1c1.8-4.1,4.4-7.4,7.9-9.9c3.5-2.4,7.4-3.6,11.7-3.6C738.1,580.6,741.7,581.5,744.8,583.3z"/>
</g>
</svg>
